# xmcd
#
# Track frame offsets: 
#        180
#        12818
#        26941
#        40077
#        54202
#        67567
#        80391
#        95782
#        109923
#        124321
#        138005
#        150902
#        162874
#        185341
#        199835
#        210667
#        226628
#        241774
#        253582
#        267398
#
# Disc length: 3742 seconds
#
# Revision: 0
# Processed by: cddbd v1.5.2PL0 Copyright (c) Steve Scherf et al.
# Submitted via: ExactAudioCopy v0.95b4
#
DISCID=f90e9c14
DTITLE=Various Artist - Legends Of Jazz [CD1]
DYEAR=2005
DGENRE=Jazz
TTITLE0=Judy Garland - Over The Rainbow
TTITLE1=Art Tatum - Stormy Weather
TTITLE2=Jelly Roll Morton - Ponchatrain
TTITLE3=J. C. Higginbotham - Give Me Your Telephone Number
TTITLE4=Bing Crosby - Stardust
TTITLE5=Ivie Anderson Oh Babe, Maybe Someday
TTITLE6=Mildred Bailey - When Day Is Done
TTITLE7=Jummie Noone - Lullaby Of Broadway
TTITLE8=Bunny Berrigan - Jazz Me Blues
TTITLE9=Bix Beiderbicke - I'll Be A Friend
TTITLE10=Jimmy Lunceford - Baby, Won't You Please Come Home
TTITLE11=Fats Waller - Honeysuckle Rose
TTITLE12=Benny Goodman - St. Louise Bluse
TTITLE13=Lionel Hampton - On The Sunny Side Of The Street
TTITLE14=Gene Krupa - Tutti Frutti
TTITLE15=Glen Miller - In The Mood
TTITLE16=Louis Armstrong - Basin Street Blues
TTITLE17=Count Basie - Jive At Five
TTITLE18=Mills Brothers - Pennies From Heaven
TTITLE19=Harry James - One O'Clock Jump
EXTD=
EXTT0=
EXTT1=
EXTT2=
EXTT3=
EXTT4=
EXTT5=
EXTT6=
EXTT7=
EXTT8=
EXTT9=
EXTT10=
EXTT11=
EXTT12=
EXTT13=
EXTT14=
EXTT15=
EXTT16=
EXTT17=
EXTT18=
EXTT19=
PLAYORDER=
